<mxfile host="app.diagrams.net" modified="2022-07-06T02:34:13.430Z" agent="5.0 (Windows NT 6.1; Win64; x64) AppleWebKit/537.36 (KHTML, like Gecko) Chrome/102.0.0.0 Safari/537.36" etag="8Ef-7GUUPItRjhQk-GIT" version="17.5.0" type="github">
  <diagram id="C5RBs43oDa-KdzZeNtuy" name="Page-1">
    <mxGraphModel dx="1102" dy="614" grid="1" gridSize="10" guides="1" tooltips="1" connect="1" arrows="1" fold="1" page="1" pageScale="1" pageWidth="827" pageHeight="1169" math="0" shadow="0">
      <root>
        <mxCell id="WIyWlLk6GJQsqaUBKTNV-0" />
        <mxCell id="WIyWlLk6GJQsqaUBKTNV-1" parent="WIyWlLk6GJQsqaUBKTNV-0" />
        <mxCell id="zt1FyDYWtnwH2pXSm1xE-34" style="edgeStyle=orthogonalEdgeStyle;rounded=0;orthogonalLoop=1;jettySize=auto;html=1;" edge="1" parent="WIyWlLk6GJQsqaUBKTNV-1" source="WIyWlLk6GJQsqaUBKTNV-3" target="WIyWlLk6GJQsqaUBKTNV-7">
          <mxGeometry relative="1" as="geometry" />
        </mxCell>
        <mxCell id="WIyWlLk6GJQsqaUBKTNV-3" value="测试计划与策略" style="rounded=1;whiteSpace=wrap;html=1;fontSize=12;glass=0;strokeWidth=1;shadow=0;" parent="WIyWlLk6GJQsqaUBKTNV-1" vertex="1">
          <mxGeometry x="90" y="220" width="90" height="40" as="geometry" />
        </mxCell>
        <mxCell id="zt1FyDYWtnwH2pXSm1xE-33" style="edgeStyle=orthogonalEdgeStyle;rounded=0;orthogonalLoop=1;jettySize=auto;html=1;" edge="1" parent="WIyWlLk6GJQsqaUBKTNV-1" source="WIyWlLk6GJQsqaUBKTNV-7" target="zt1FyDYWtnwH2pXSm1xE-36">
          <mxGeometry relative="1" as="geometry">
            <mxPoint x="440" y="240" as="targetPoint" />
          </mxGeometry>
        </mxCell>
        <mxCell id="WIyWlLk6GJQsqaUBKTNV-7" value="测试设计" style="rounded=1;whiteSpace=wrap;html=1;fontSize=12;glass=0;strokeWidth=1;shadow=0;" parent="WIyWlLk6GJQsqaUBKTNV-1" vertex="1">
          <mxGeometry x="250" y="220" width="90" height="40" as="geometry" />
        </mxCell>
        <mxCell id="zt1FyDYWtnwH2pXSm1xE-39" style="edgeStyle=orthogonalEdgeStyle;rounded=0;orthogonalLoop=1;jettySize=auto;html=1;exitX=1;exitY=0.5;exitDx=0;exitDy=0;entryX=0;entryY=0.5;entryDx=0;entryDy=0;" edge="1" parent="WIyWlLk6GJQsqaUBKTNV-1" source="zt1FyDYWtnwH2pXSm1xE-36" target="zt1FyDYWtnwH2pXSm1xE-74">
          <mxGeometry relative="1" as="geometry" />
        </mxCell>
        <mxCell id="zt1FyDYWtnwH2pXSm1xE-36" value="测试执行" style="rounded=1;whiteSpace=wrap;html=1;fontSize=12;glass=0;strokeWidth=1;shadow=0;" vertex="1" parent="WIyWlLk6GJQsqaUBKTNV-1">
          <mxGeometry x="410" y="220" width="90" height="40" as="geometry" />
        </mxCell>
        <mxCell id="zt1FyDYWtnwH2pXSm1xE-52" style="edgeStyle=orthogonalEdgeStyle;rounded=0;orthogonalLoop=1;jettySize=auto;html=1;dashed=1;endArrow=doubleBlock;endFill=0;entryX=0.5;entryY=0;entryDx=0;entryDy=0;" edge="1" parent="WIyWlLk6GJQsqaUBKTNV-1" source="zt1FyDYWtnwH2pXSm1xE-38" target="zt1FyDYWtnwH2pXSm1xE-53">
          <mxGeometry relative="1" as="geometry">
            <mxPoint x="740" y="320" as="targetPoint" />
          </mxGeometry>
        </mxCell>
        <mxCell id="zt1FyDYWtnwH2pXSm1xE-38" value="交付" style="rounded=1;whiteSpace=wrap;html=1;fontSize=12;glass=0;strokeWidth=1;shadow=0;" vertex="1" parent="WIyWlLk6GJQsqaUBKTNV-1">
          <mxGeometry x="699" y="220" width="90" height="40" as="geometry" />
        </mxCell>
        <mxCell id="zt1FyDYWtnwH2pXSm1xE-45" style="edgeStyle=orthogonalEdgeStyle;rounded=0;orthogonalLoop=1;jettySize=auto;html=1;dashed=1;endArrow=doubleBlock;endFill=0;" edge="1" parent="WIyWlLk6GJQsqaUBKTNV-1" source="zt1FyDYWtnwH2pXSm1xE-43">
          <mxGeometry relative="1" as="geometry">
            <mxPoint x="210" y="240" as="targetPoint" />
          </mxGeometry>
        </mxCell>
        <mxCell id="zt1FyDYWtnwH2pXSm1xE-72" value="评审回归" style="edgeLabel;html=1;align=center;verticalAlign=middle;resizable=0;points=[];fontSize=11;" vertex="1" connectable="0" parent="zt1FyDYWtnwH2pXSm1xE-45">
          <mxGeometry x="-0.1833" y="-1" relative="1" as="geometry">
            <mxPoint as="offset" />
          </mxGeometry>
        </mxCell>
        <mxCell id="zt1FyDYWtnwH2pXSm1xE-43" value="评审" style="shape=process;whiteSpace=wrap;html=1;backgroundOutline=1;" vertex="1" parent="WIyWlLk6GJQsqaUBKTNV-1">
          <mxGeometry x="170" y="90" width="80" height="30" as="geometry" />
        </mxCell>
        <mxCell id="zt1FyDYWtnwH2pXSm1xE-46" style="edgeStyle=orthogonalEdgeStyle;rounded=0;orthogonalLoop=1;jettySize=auto;html=1;dashed=1;endArrow=doubleBlock;endFill=0;" edge="1" parent="WIyWlLk6GJQsqaUBKTNV-1" source="zt1FyDYWtnwH2pXSm1xE-47">
          <mxGeometry relative="1" as="geometry">
            <mxPoint x="370" y="240" as="targetPoint" />
          </mxGeometry>
        </mxCell>
        <mxCell id="zt1FyDYWtnwH2pXSm1xE-73" value="评审回归" style="edgeLabel;html=1;align=center;verticalAlign=middle;resizable=0;points=[];fontSize=11;" vertex="1" connectable="0" parent="zt1FyDYWtnwH2pXSm1xE-46">
          <mxGeometry x="-0.2333" y="1" relative="1" as="geometry">
            <mxPoint y="4" as="offset" />
          </mxGeometry>
        </mxCell>
        <mxCell id="zt1FyDYWtnwH2pXSm1xE-47" value="评审" style="shape=process;whiteSpace=wrap;html=1;backgroundOutline=1;" vertex="1" parent="WIyWlLk6GJQsqaUBKTNV-1">
          <mxGeometry x="330" y="90" width="80" height="30" as="geometry" />
        </mxCell>
        <mxCell id="zt1FyDYWtnwH2pXSm1xE-49" value="" style="endArrow=doubleBlock;html=1;rounded=0;dashed=1;endFill=0;" edge="1" parent="WIyWlLk6GJQsqaUBKTNV-1">
          <mxGeometry width="50" height="50" relative="1" as="geometry">
            <mxPoint x="530" y="240" as="sourcePoint" />
            <mxPoint x="530" y="320" as="targetPoint" />
          </mxGeometry>
        </mxCell>
        <mxCell id="zt1FyDYWtnwH2pXSm1xE-50" value="执行后评估" style="shape=process;whiteSpace=wrap;html=1;backgroundOutline=1;" vertex="1" parent="WIyWlLk6GJQsqaUBKTNV-1">
          <mxGeometry x="490" y="320" width="80" height="30" as="geometry" />
        </mxCell>
        <mxCell id="zt1FyDYWtnwH2pXSm1xE-55" style="edgeStyle=orthogonalEdgeStyle;rounded=0;orthogonalLoop=1;jettySize=auto;html=1;dashed=1;endArrow=doubleBlock;endFill=0;entryX=0.5;entryY=1;entryDx=0;entryDy=0;" edge="1" parent="WIyWlLk6GJQsqaUBKTNV-1" source="zt1FyDYWtnwH2pXSm1xE-53" target="WIyWlLk6GJQsqaUBKTNV-3">
          <mxGeometry relative="1" as="geometry">
            <mxPoint x="300" y="340" as="targetPoint" />
            <Array as="points">
              <mxPoint x="740" y="420" />
              <mxPoint x="135" y="420" />
            </Array>
          </mxGeometry>
        </mxCell>
        <mxCell id="zt1FyDYWtnwH2pXSm1xE-71" value="策略漏测分析" style="edgeLabel;html=1;align=center;verticalAlign=middle;resizable=0;points=[];fontSize=11;" vertex="1" connectable="0" parent="zt1FyDYWtnwH2pXSm1xE-55">
          <mxGeometry x="-0.0208" y="1" relative="1" as="geometry">
            <mxPoint x="4" y="-1" as="offset" />
          </mxGeometry>
        </mxCell>
        <mxCell id="zt1FyDYWtnwH2pXSm1xE-67" style="edgeStyle=orthogonalEdgeStyle;rounded=0;orthogonalLoop=1;jettySize=auto;html=1;dashed=1;fontSize=11;endArrow=doubleBlock;endFill=0;entryX=0.5;entryY=1;entryDx=0;entryDy=0;" edge="1" parent="WIyWlLk6GJQsqaUBKTNV-1" source="zt1FyDYWtnwH2pXSm1xE-53" target="WIyWlLk6GJQsqaUBKTNV-7">
          <mxGeometry relative="1" as="geometry">
            <mxPoint x="290" y="380" as="targetPoint" />
          </mxGeometry>
        </mxCell>
        <mxCell id="zt1FyDYWtnwH2pXSm1xE-69" value="设计漏测分析" style="edgeLabel;html=1;align=center;verticalAlign=middle;resizable=0;points=[];fontSize=11;" vertex="1" connectable="0" parent="zt1FyDYWtnwH2pXSm1xE-67">
          <mxGeometry x="0.2136" y="3" relative="1" as="geometry">
            <mxPoint y="-3" as="offset" />
          </mxGeometry>
        </mxCell>
        <mxCell id="zt1FyDYWtnwH2pXSm1xE-80" style="edgeStyle=orthogonalEdgeStyle;rounded=0;orthogonalLoop=1;jettySize=auto;html=1;exitX=0;exitY=0;exitDx=0;exitDy=0;entryX=0.5;entryY=1;entryDx=0;entryDy=0;dashed=1;fontSize=11;endArrow=classic;endFill=1;" edge="1" parent="WIyWlLk6GJQsqaUBKTNV-1" source="zt1FyDYWtnwH2pXSm1xE-53" target="zt1FyDYWtnwH2pXSm1xE-74">
          <mxGeometry relative="1" as="geometry">
            <Array as="points">
              <mxPoint x="605" y="365" />
            </Array>
          </mxGeometry>
        </mxCell>
        <mxCell id="zt1FyDYWtnwH2pXSm1xE-81" value="执行漏测分析" style="edgeLabel;html=1;align=center;verticalAlign=middle;resizable=0;points=[];fontSize=11;" vertex="1" connectable="0" parent="zt1FyDYWtnwH2pXSm1xE-80">
          <mxGeometry x="-0.3431" y="-1" relative="1" as="geometry">
            <mxPoint x="-32" y="-64" as="offset" />
          </mxGeometry>
        </mxCell>
        <mxCell id="zt1FyDYWtnwH2pXSm1xE-53" value="交付后评估" style="shape=process;whiteSpace=wrap;html=1;backgroundOutline=1;" vertex="1" parent="WIyWlLk6GJQsqaUBKTNV-1">
          <mxGeometry x="704" y="365" width="80" height="30" as="geometry" />
        </mxCell>
        <mxCell id="zt1FyDYWtnwH2pXSm1xE-68" value="" style="endArrow=none;html=1;rounded=0;dashed=1;fontSize=11;exitX=0;exitY=0.5;exitDx=0;exitDy=0;" edge="1" parent="WIyWlLk6GJQsqaUBKTNV-1" source="zt1FyDYWtnwH2pXSm1xE-50">
          <mxGeometry width="50" height="50" relative="1" as="geometry">
            <mxPoint x="390" y="280" as="sourcePoint" />
            <mxPoint x="300" y="335" as="targetPoint" />
          </mxGeometry>
        </mxCell>
        <mxCell id="zt1FyDYWtnwH2pXSm1xE-70" value="设计符合度分析" style="edgeLabel;html=1;align=center;verticalAlign=middle;resizable=0;points=[];fontSize=11;" vertex="1" connectable="0" parent="zt1FyDYWtnwH2pXSm1xE-68">
          <mxGeometry x="0.2421" y="3" relative="1" as="geometry">
            <mxPoint x="12" y="-3" as="offset" />
          </mxGeometry>
        </mxCell>
        <mxCell id="zt1FyDYWtnwH2pXSm1xE-75" style="edgeStyle=orthogonalEdgeStyle;rounded=0;orthogonalLoop=1;jettySize=auto;html=1;entryX=0;entryY=0.5;entryDx=0;entryDy=0;dashed=1;fontSize=11;endArrow=classic;endFill=1;" edge="1" parent="WIyWlLk6GJQsqaUBKTNV-1" source="zt1FyDYWtnwH2pXSm1xE-74" target="zt1FyDYWtnwH2pXSm1xE-38">
          <mxGeometry relative="1" as="geometry" />
        </mxCell>
        <mxCell id="zt1FyDYWtnwH2pXSm1xE-74" value="测试回归" style="rounded=1;whiteSpace=wrap;html=1;fontSize=12;glass=0;strokeWidth=1;shadow=0;" vertex="1" parent="WIyWlLk6GJQsqaUBKTNV-1">
          <mxGeometry x="560" y="220" width="90" height="40" as="geometry" />
        </mxCell>
        <mxCell id="zt1FyDYWtnwH2pXSm1xE-77" value="" style="endArrow=doubleBlock;html=1;rounded=0;dashed=1;endFill=0;exitX=0.5;exitY=0;exitDx=0;exitDy=0;entryX=0.5;entryY=0;entryDx=0;entryDy=0;" edge="1" parent="WIyWlLk6GJQsqaUBKTNV-1" source="zt1FyDYWtnwH2pXSm1xE-74" target="zt1FyDYWtnwH2pXSm1xE-36">
          <mxGeometry width="50" height="50" relative="1" as="geometry">
            <mxPoint x="540" y="250" as="sourcePoint" />
            <mxPoint x="605" y="170" as="targetPoint" />
            <Array as="points">
              <mxPoint x="605" y="140" />
              <mxPoint x="530" y="140" />
              <mxPoint x="455" y="140" />
            </Array>
          </mxGeometry>
        </mxCell>
        <mxCell id="zt1FyDYWtnwH2pXSm1xE-82" value="执行漏测分析" style="edgeLabel;html=1;align=center;verticalAlign=middle;resizable=0;points=[];fontSize=11;" vertex="1" connectable="0" parent="zt1FyDYWtnwH2pXSm1xE-77">
          <mxGeometry x="0.0774" y="-1" relative="1" as="geometry">
            <mxPoint x="12" as="offset" />
          </mxGeometry>
        </mxCell>
      </root>
    </mxGraphModel>
  </diagram>
</mxfile>
